# xmcd CD database file
#
# Track frame offsets:
#	150
#	12413
#	33157
#	48700
#	64542
#	76997
#	88296
#	104982
#	118117
#	131992
#	142968
#	155623
#
# Disc length: 2471 seconds
#
# Revision: 0
# Processed by: cddbd v1.5.1PL0 Copyright (c) Steve Scherf et al.
# Submitted via: CDex 1.51
#
DISCID=ac09a50c
DTITLE=Frank Sinatra - The Voice - Vol. 2
DYEAR=1971
DGENRE=Jazz
TTITLE0=Please Be Kind
TTITLE1=My Way
TTITLE2=Love's Been Good to Me
TTITLE3=All the Way
TTITLE4=The Tender Trap
TTITLE5=Out Beyond the Window
TTITLE6=A Man Alone
TTITLE7=Didn't We
TTITLE8=Forget to Remember
TTITLE9=Fly Me to the Moon
TTITLE10=Goin' Out of My Head
TTITLE11=My Kind of Town
EXTD=YEAR: 1971
EXTT0=
EXTT1=
EXTT2=
EXTT3=
EXTT4=
EXTT5=
EXTT6=
EXTT7=
EXTT8=
EXTT9=
EXTT10=
EXTT11=
PLAYORDER=
